<svg width="16" height="16" viewBox="0 0 16 16" fill="none" xmlns="http://www.w3.org/2000/svg">
<path fill-rule="evenodd" clip-rule="evenodd" d="M15.0209 0.979468C15.1321 1.0907 15.18 1.24131 15.1645 1.38642C15.16 1.42797 15.1504 1.46907 15.1356 1.50867L10.4726 14.8315C10.4049 15.025 10.2259 15.1576 10.021 15.1659C9.8162 15.1743 9.62701 15.0568 9.54375 14.8694L6.95518 9.04516L1.13092 6.45659C0.943577 6.37333 0.826046 6.18415 0.834403 5.97931C0.842759 5.77447 0.975312 5.59548 1.16881 5.52776L14.4917 0.864745C14.5309 0.850086 14.5715 0.840508 14.6126 0.836009C14.6428 0.832679 14.6731 0.832137 14.7031 0.834298C14.8189 0.842562 14.9324 0.890952 15.0209 0.979468ZM12.7645 2.52876L2.68952 6.05499L7.22325 8.06998L12.7645 2.52876ZM7.93036 8.77709L13.4716 3.23586L9.94535 13.3108L7.93036 8.77709Z" fill="white"/>
</svg>
