<svg width="16" height="16" viewBox="0 0 16 16" fill="none" xmlns="http://www.w3.org/2000/svg">
<path fill-rule="evenodd" clip-rule="evenodd" d="M3.8339 2C3.8339 1.72386 3.61005 1.5 3.3339 1.5C3.05776 1.5 2.8339 1.72386 2.8339 2V2.90165C2.06374 3.11886 1.49927 3.82668 1.49927 4.66634C1.49927 5.506 2.06374 6.21382 2.8339 6.43103V14C2.8339 14.2761 3.05776 14.5 3.3339 14.5C3.61005 14.5 3.8339 14.2761 3.8339 14V6.43029C4.60274 6.21222 5.16593 5.50505 5.16593 4.66634C5.16593 3.82763 4.60274 3.12046 3.8339 2.90239V2ZM3.31902 3.83312C3.32396 3.83326 3.32892 3.83333 3.3339 3.83333C3.33855 3.83333 3.34319 3.83327 3.34781 3.83314C3.80103 3.84126 4.16593 4.21118 4.16593 4.66634C4.16593 5.12658 3.79284 5.49967 3.3326 5.49967C2.87236 5.49967 2.49927 5.12658 2.49927 4.66634C2.49927 4.21064 2.86505 3.84037 3.31902 3.83312ZM8.50057 2C8.50057 1.72386 8.27671 1.5 8.00057 1.5C7.72443 1.5 7.50057 1.72386 7.50057 2V9.56901C6.73107 9.78665 6.16724 10.4941 6.16724 11.3333C6.16724 12.1725 6.73107 12.88 7.50057 13.0977V14C7.50057 14.2761 7.72443 14.5 8.00057 14.5C8.27671 14.5 8.50057 14.2761 8.50057 14V13.0977C9.27007 12.88 9.8339 12.1725 9.8339 11.3333C9.8339 10.4941 9.27007 9.78665 8.50057 9.56901V2ZM13.1672 2C13.1672 1.72386 12.9434 1.5 12.6672 1.5C12.3911 1.5 12.1672 1.72386 12.1672 2V4.23582C11.3974 4.45325 10.8333 5.1609 10.8333 6.00033C10.8333 6.83975 11.3974 7.5474 12.1672 7.76483V14C12.1672 14.2761 12.3911 14.5 12.6672 14.5C12.9434 14.5 13.1672 14.2761 13.1672 14V7.76446C13.9364 7.54661 14.4999 6.83927 14.4999 6.00033C14.4999 5.16138 13.9364 4.45404 13.1672 4.23619V2ZM12.6814 6.83353C13.1348 6.82563 13.4999 6.45562 13.4999 6.00033C13.4999 5.54009 13.1268 5.16699 12.6666 5.16699C12.2063 5.16699 11.8333 5.54009 11.8333 6.00033C11.8333 6.45589 12.1988 6.82607 12.6526 6.83354L12.6672 6.83333L12.6814 6.83353ZM8.8339 11.3333C8.8339 10.8731 8.46081 10.5 8.00057 10.5C7.54033 10.5 7.16724 10.8731 7.16724 11.3333C7.16724 11.7936 7.54033 12.1667 8.00057 12.1667C8.46081 12.1667 8.8339 11.7936 8.8339 11.3333Z" fill="#009649"/>
</svg>
