<svg width="264" height="58" viewBox="0 0 264 58" fill="none" xmlns="http://www.w3.org/2000/svg">
<rect opacity="0.2" x="16" y="10" width="9.7" height="38" fill="#00B9F2"/>
<rect opacity="0.2" x="27.7" y="3" width="9.7" height="45" fill="#00B9F2"/>
<rect opacity="0.2" x="39.4" width="9.7" height="48" fill="#00B9F2"/>
<rect opacity="0.2" x="51.1" y="10" width="9.7" height="38" fill="#00B9F2"/>
<rect opacity="0.2" x="62.8" y="34" width="9.7" height="14" fill="#00B9F2"/>
<rect opacity="0.2" x="74.5" y="19" width="9.7" height="29" fill="#00B9F2"/>
<rect opacity="0.2" x="86.2" y="30" width="9.7" height="18" fill="#00B9F2"/>
<rect opacity="0.2" x="97.9" y="37" width="9.7" height="11" fill="#00B9F2"/>
<rect opacity="0.2" x="109.6" y="37" width="9.7" height="11" fill="#00B9F2"/>
<rect opacity="0.2" x="121.3" y="34" width="9.7" height="14" fill="#00B9F2"/>
<rect opacity="0.2" x="133" y="22" width="9.7" height="26" fill="#00B9F2"/>
<rect opacity="0.2" x="144.7" y="43" width="9.7" height="5" fill="#00B9F2"/>
<rect opacity="0.2" x="156.4" y="17" width="9.7" height="31" fill="#00B9F2"/>
<rect opacity="0.2" x="168.1" y="34" width="9.7" height="14" fill="#00B9F2"/>
<rect opacity="0.2" x="179.8" y="12" width="9.7" height="36" fill="#00B9F2"/>
<rect opacity="0.2" x="191.5" y="37" width="9.7" height="11" fill="#00B9F2"/>
<rect opacity="0.2" x="203.2" y="3" width="9.7" height="45" fill="#00B9F2"/>
<rect opacity="0.2" x="214.9" y="12" width="9.7" height="36" fill="#00B9F2"/>
<rect opacity="0.2" x="226.6" y="8" width="9.7" height="40" fill="#00B9F2"/>
<rect opacity="0.2" x="238.3" y="30" width="9.7" height="18" fill="#00B9F2"/>
<rect y="48" width="264" height="4" rx="2" fill="#BEBEBE"/>
<circle cx="8" cy="50" r="8" fill="#00B9F2"/>
<rect x="15" y="48" width="234" height="4" fill="#00B9F2"/>
<circle cx="256" cy="50" r="8" fill="#00B9F2"/>
</svg>
